<?xml version="1.0" encoding="UTF-8" standalone="no"?>
<svg
   width="83.184425mm"
   height="79.875679mm"
   viewBox="-2 -2 87.184425 83.875679"
   version="1.1"
   id="svg5"
   xml:space="preserve"
   xmlns="http://www.w3.org/2000/svg"
   xmlns:svg="http://www.w3.org/2000/svg">
  <g
     id="layer1"
     transform="translate(-45.342126,-82.549184)">
    <g id="g802">
      <path
         style="fill:#99cf2b;stroke:white;stroke-width:1.5;stroke-linejoin:round"
         d="m 88.861708,113.60523 c -4.925756,-7.56759 -9.114904,-13.891195 -9.309222,-14.052464 -0.967181,-0.802689 -2.951715,0.994174 -5.697979,5.159134 -3.47947,5.27694 -5.543751,11.09578 -6.163533,17.3739 l -0.171063,1.73278 -2.796695,-0.013 -2.796696,-0.013 0.169172,-2.201 c 0.674997,-8.78209 5.196526,-18.87793 11.544402,-25.776784 7.136744,-7.756194 18.678316,-13.190068 28.174096,-13.264612 4.92949,-0.0387 8.12138,1.045643 11.77396,3.999817 2.49896,2.021141 3.24798,3.025659 6.75891,9.064463 1.5652,2.692136 3.95897,6.700556 5.31949,8.907606 1.36052,2.20704 2.47368,4.1986 2.47368,4.42567 0,0.63004 -0.9691,1.12526 -3.43958,1.75768 -4.4646,1.14289 -7.40792,1.00929 -12.31775,-0.55912 -2.85871,-0.91319 -4.32562,-1.83673 -7.06634,-4.44887 -3.32605,-3.16999 -6.070599,-7.236118 -8.323798,-12.331924 -0.643446,-1.455209 -1.457095,-2.938918 -1.80811,-3.297131 -0.609973,-0.62248 -0.694005,-0.636478 -1.899129,-0.316375 -1.868998,0.49644 -5.584836,2.19129 -7.299468,3.329396 -1.620914,1.075903 -2.036082,1.873104 -1.584611,3.04275 0.144561,0.374519 4.370346,7.004014 9.390632,14.732214 l 9.127794,14.05127 -0.82815,0.29946 c -0.45548,0.1647 -1.52236,0.71749 -2.370834,1.22842 -0.848477,0.51092 -1.623814,0.92895 -1.722975,0.92895 -0.09916,0 -4.210449,-6.19166 -9.136203,-13.75924 z"
         id="path806" />
      <path
         style="fill:#f6302e;stroke:white;stroke-width:1.5;stroke-linejoin:round"
         d="m 62.310006,162.2749 c -5.857124,-0.77655 -10.788768,-3.93054 -14.060212,-8.9921 -3.972725,-6.14658 -3.864761,-14.6598 0.263892,-20.80855 2.328054,-3.46713 6.031777,-6.33813 9.871223,-7.65183 9.272678,-3.17271 19.22975,0.96799 23.609398,9.8181 1.385962,2.80066 1.94958,5.21638 1.955912,8.38322 0.0064,3.21374 -0.582346,5.747 -2.017927,8.6824 -1.042689,2.13204 -1.594903,2.87738 -3.63827,4.91066 -1.84599,1.83689 -2.91688,2.65817 -4.582099,3.51407 -3.551672,1.82552 -7.791249,2.62273 -11.401917,2.14403 z m 44.714584,0.005 c -10.801866,-1.46676 -18.424319,-11.5964 -16.704133,-22.19848 1.025006,-6.31747 5.216475,-11.8018 11.125043,-14.55659 2.70092,-1.25926 4.78007,-1.69626 8.0416,-1.69021 4.64211,0.009 7.87075,1.102 11.65564,3.94717 3.00574,2.25947 5.57947,5.84587 6.75365,9.41095 0.56598,1.71842 0.63939,2.40831 0.62934,5.9141 -0.0103,3.59392 -0.0792,4.17192 -0.72913,6.11995 -1.26197,3.78229 -4.18225,7.57536 -7.68526,9.98216 -3.53715,2.43028 -8.76702,3.65752 -13.08675,3.07095 z"
         id="path804" />
    </g>
  </g>
</svg>
